<svg xmlns="http://www.w3.org/2000/svg" height="512pt" version="1.1" viewBox="-66 0 512 512.00001" width="512pt">
<g id="surface1">
<path d="M 169.828125 293.527344 L 211.019531 274.324219 L 180.597656 329.464844 Z M 169.828125 293.527344 " style=" stroke:none;fill-rule:nonzero;fill:rgb(20.392157%,24.313725%,41.960784%);fill-opacity:1;" />
<path d="M 88.667969 293.527344 L 47.476562 274.324219 L 77.898438 329.464844 Z M 88.667969 293.527344 " style=" stroke:none;fill-rule:nonzero;fill:rgb(25.490196%,29.411765%,50.980392%);fill-opacity:1;" />
<path d="M 100.660156 512 C 87.589844 512 76.996094 501.40625 76.996094 488.335938 L 76.996094 274.929688 C 76.996094 261.863281 87.589844 251.269531 100.660156 251.269531 C 113.726562 251.269531 124.320312 261.863281 124.320312 274.929688 L 124.320312 488.339844 C 124.320312 501.40625 113.726562 512 100.660156 512 Z M 100.660156 512 " style=" stroke:none;fill-rule:nonzero;fill:rgb(25.490196%,29.411765%,50.980392%);fill-opacity:1;" />
<path d="M 157.78125 512 C 144.710938 512 134.117188 501.40625 134.117188 488.335938 L 134.117188 276.953125 C 134.117188 263.882812 144.714844 253.289062 157.78125 253.289062 C 170.851562 253.289062 181.445312 263.882812 181.445312 276.953125 L 181.445312 488.335938 C 181.445312 501.40625 170.851562 512 157.78125 512 Z M 157.78125 512 " style=" stroke:none;fill-rule:nonzero;fill:rgb(20.392157%,24.313725%,41.960784%);fill-opacity:1;" />
<path d="M 76.992188 109.8125 C 76.996094 177.550781 76.996094 198.503906 76.996094 278.664062 C 76.996094 290.003906 86.183594 299.195312 97.523438 299.195312 L 160.960938 299.195312 C 172.28125 299.195312 181.464844 290.03125 181.488281 278.710938 L 181.851562 109.8125 Z M 76.992188 109.8125 " style=" stroke:none;fill-rule:nonzero;fill:rgb(10.588235%,13.333333%,29.019608%);fill-opacity:1;" />
<path d="M 76.992188 109.8125 C 76.992188 113.246094 76.996094 215.933594 76.996094 278.664062 C 76.996094 290.003906 86.183594 299.195312 97.519531 299.195312 C 109.210938 299.195312 122.765625 299.195312 129.171875 299.195312 L 129.171875 109.8125 Z M 76.992188 109.8125 " style=" stroke:none;fill-rule:nonzero;fill:rgb(14.509804%,17.647059%,36.078431%);fill-opacity:1;" />
<path d="M 159.316406 109.8125 L 129.175781 188.777344 L 99.132812 109.8125 Z M 159.316406 109.8125 " style=" stroke:none;fill-rule:nonzero;fill:rgb(100%,100%,100%);fill-opacity:1;" />
<path d="M 142.28125 136.695312 L 135.597656 124.535156 L 141.355469 114.058594 C 142.40625 112.152344 141.023438 109.8125 138.847656 109.8125 L 119.535156 109.8125 C 117.359375 109.8125 115.976562 112.152344 117.023438 114.058594 L 122.804688 124.570312 L 116.140625 136.695312 C 115.21875 138.375 114.917969 140.324219 115.292969 142.203125 L 119.402344 163.074219 L 129.175781 188.773438 L 138.992188 163.070312 L 143.128906 142.203125 C 143.503906 140.324219 143.203125 138.375 142.28125 136.695312 Z M 142.28125 136.695312 " style=" stroke:none;fill-rule:nonzero;fill:rgb(98.039216%,31.372549%,23.529412%);fill-opacity:1;" />
<path d="M 142.28125 136.695312 L 135.597656 124.535156 L 141.355469 114.058594 C 142.40625 112.152344 141.023438 109.8125 138.847656 109.8125 L 129.175781 109.8125 L 129.175781 188.777344 L 138.992188 163.070312 L 143.128906 142.207031 C 143.503906 140.324219 143.203125 138.375 142.28125 136.695312 Z M 142.28125 136.695312 " style=" stroke:none;fill-rule:nonzero;fill:rgb(87.843137%,19.607843%,11.372549%);fill-opacity:1;" />
<path d="M 88.183594 82.492188 C 88.183594 104.949219 106.71875 123.152344 129.175781 123.152344 C 151.632812 123.152344 169.503906 104.949219 169.503906 82.492188 C 169.503906 60.035156 151.296875 41.832031 128.84375 41.832031 C 106.386719 41.832031 88.183594 60.035156 88.183594 82.492188 Z M 88.183594 82.492188 " style=" stroke:none;fill-rule:nonzero;fill:rgb(100%,71.372549%,61.960784%);fill-opacity:1;" />
<path d="M 76.996094 262.390625 L 110.128906 262.390625 L 110.128906 245.890625 L 76.996094 245.890625 C 76.996094 252.085938 76.996094 257.558594 76.996094 262.390625 Z M 76.996094 262.390625 " style=" stroke:none;fill-rule:nonzero;fill:rgb(10.588235%,13.333333%,29.019608%);fill-opacity:1;" />
<path d="M 181.542969 245.890625 L 147.558594 245.890625 L 147.558594 262.390625 L 181.523438 262.390625 Z M 181.542969 245.890625 " style=" stroke:none;fill-rule:nonzero;fill:rgb(7.843137%,10.196078%,23.137255%);fill-opacity:1;" />
<path d="M 256.214844 223.105469 C 259.234375 217.394531 259.257812 210.5625 256.273438 204.832031 L 218.957031 133.148438 C 211.476562 118.777344 196.761719 109.851562 180.5625 109.851562 L 161.203125 109.851562 L 161.203125 149.183594 L 180.5625 149.183594 C 182.042969 149.183594 183.386719 149.996094 184.070312 151.3125 L 216.621094 213.839844 L 186.964844 269.90625 C 181.886719 279.507812 185.550781 291.40625 195.152344 296.484375 C 198.085938 298.035156 201.230469 298.769531 204.328125 298.769531 C 211.382812 298.769531 218.203125 294.964844 221.730469 288.296875 Z M 256.214844 223.105469 " style=" stroke:none;fill-rule:nonzero;fill:rgb(10.588235%,13.333333%,29.019608%);fill-opacity:1;" />
<path d="M 96.886719 109.851562 L 77.933594 109.851562 C 61.734375 109.851562 47.023438 118.78125 39.539062 133.152344 L 2.222656 204.832031 C -0.761719 210.5625 -0.738281 217.394531 2.28125 223.105469 L 36.765625 288.296875 C 40.292969 294.964844 47.113281 298.769531 54.164062 298.769531 C 57.265625 298.769531 60.410156 298.035156 63.34375 296.484375 C 72.945312 291.40625 76.609375 279.507812 71.53125 269.90625 L 41.871094 213.839844 L 74.425781 151.3125 C 75.109375 150 76.453125 149.183594 77.933594 149.183594 L 96.886719 149.183594 Z M 96.886719 109.851562 " style=" stroke:none;fill-rule:nonzero;fill:rgb(14.509804%,17.647059%,36.078431%);fill-opacity:1;" />
<path d="M 191.910156 260.554688 L 186.964844 269.90625 C 181.886719 279.507812 185.550781 291.40625 195.152344 296.484375 C 204.75 301.5625 216.652344 297.898438 221.730469 288.296875 L 226.296875 279.664062 Z M 191.910156 260.554688 " style=" stroke:none;fill-rule:nonzero;fill:rgb(100%,100%,100%);fill-opacity:1;" />
<path d="M 66.585938 260.554688 L 32.199219 279.664062 L 36.765625 288.296875 C 41.851562 297.910156 53.757812 301.554688 63.34375 296.484375 C 72.945312 291.40625 76.609375 279.507812 71.53125 269.90625 Z M 66.585938 260.554688 " style=" stroke:none;fill-rule:nonzero;fill:rgb(100%,100%,100%);fill-opacity:1;" />
<path d="M 186.964844 269.90625 C 181.886719 279.507812 185.550781 291.40625 195.152344 296.484375 C 204.75 301.5625 216.652344 297.898438 221.730469 288.296875 Z M 186.964844 269.90625 " style=" stroke:none;fill-rule:nonzero;fill:rgb(100%,71.372549%,61.960784%);fill-opacity:1;" />
<path d="M 36.765625 288.296875 C 41.851562 297.910156 53.757812 301.554688 63.34375 296.484375 C 72.945312 291.40625 76.609375 279.507812 71.53125 269.90625 Z M 36.765625 288.296875 " style=" stroke:none;fill-rule:nonzero;fill:rgb(100%,71.372549%,61.960784%);fill-opacity:1;" />
<path d="M 299.304688 0 C 254.371094 0 217.945312 24.253906 217.945312 54.171875 C 217.945312 61.753906 220.292969 68.96875 224.519531 75.519531 L 215.332031 89.835938 C 213.152344 93.230469 215.882812 97.636719 219.894531 97.203125 L 244.96875 94.480469 C 259.375 103.09375 278.414062 108.339844 299.304688 108.339844 C 344.238281 108.339844 380.664062 84.085938 380.664062 54.167969 C 380.664062 24.25 344.238281 0 299.304688 0 Z M 299.304688 0 " style=" stroke:none;fill-rule:nonzero;fill:rgb(78.431373%,90.196078%,92.156863%);fill-opacity:1;" />
<path d="M 279.207031 73.550781 C 272.390625 73.324219 266.820312 69.800781 266.820312 66.164062 C 266.820312 64.234375 268.527344 61.394531 270.683594 61.394531 C 273.070312 61.394531 275.003906 64.746094 279.207031 65.484375 L 279.207031 56.277344 C 273.980469 54.289062 267.84375 51.847656 267.84375 44.574219 C 267.84375 37.359375 273.183594 33.894531 279.207031 33.042969 L 279.207031 31.449219 C 279.207031 30.65625 280.117188 29.917969 281.367188 29.917969 C 282.445312 29.917969 283.523438 30.65625 283.523438 31.449219 L 283.523438 32.871094 C 287.046875 32.984375 293.695312 33.894531 293.695312 37.8125 C 293.695312 39.347656 292.671875 42.472656 290.171875 42.472656 C 288.296875 42.472656 287.214844 40.65625 283.523438 40.371094 L 283.523438 48.667969 C 288.695312 50.597656 294.71875 53.269531 294.71875 60.9375 C 294.71875 67.984375 290.171875 72.246094 283.523438 73.324219 L 283.523438 74.972656 C 283.523438 75.765625 282.445312 76.503906 281.367188 76.503906 C 280.113281 76.503906 279.207031 75.765625 279.207031 74.972656 Z M 279.777344 47.300781 L 279.777344 40.542969 C 277.21875 41.050781 276.140625 42.359375 276.140625 43.722656 C 276.140625 45.371094 277.617188 46.394531 279.777344 47.300781 Z M 282.957031 57.8125 L 282.957031 65.425781 C 284.890625 64.972656 286.421875 63.894531 286.421875 61.847656 C 286.421875 59.972656 285.003906 58.78125 282.957031 57.8125 Z M 282.957031 57.8125 " style=" stroke:none;fill-rule:nonzero;fill:rgb(52.941176%,68.627451%,72.54902%);fill-opacity:1;" />
<path d="M 325.625 51.789062 C 322.5 54.234375 322.445312 55.9375 322.445312 58.894531 C 322.445312 59.972656 321.875 61.222656 319.089844 61.222656 C 316.761719 61.222656 315.964844 60.371094 315.964844 57.414062 C 315.964844 52.527344 318.125 50.199219 319.773438 48.78125 C 321.648438 47.1875 324.828125 45.425781 324.828125 42.359375 C 324.828125 39.746094 322.558594 38.496094 319.714844 38.496094 C 313.921875 38.496094 315.171875 42.871094 312.101562 42.871094 C 310.570312 42.871094 308.695312 41.847656 308.695312 39.632812 C 308.695312 36.566406 312.214844 32.019531 319.886719 32.019531 C 327.160156 32.019531 331.988281 36.054688 331.988281 41.394531 C 331.988281 46.734375 327.160156 50.597656 325.625 51.789062 Z M 323.523438 69.519531 C 323.523438 71.847656 321.589844 73.894531 319.148438 73.894531 C 316.703125 73.894531 314.828125 71.847656 314.828125 69.519531 C 314.828125 67.132812 316.761719 65.144531 319.148438 65.144531 C 321.535156 65.144531 323.523438 67.132812 323.523438 69.519531 Z M 323.523438 69.519531 " style=" stroke:none;fill-rule:nonzero;fill:rgb(52.941176%,68.627451%,72.54902%);fill-opacity:1;" />
</g>
</svg>